<svg xmlns="http://www.w3.org/2000/svg" xmlns:xlink="http://www.w3.org/1999/xlink" width="287" height="107" viewBox="0 0 287 107">
  <defs>
    <clipPath id="clip-path">
      <rect id="Rectangle_1" data-name="Rectangle 1" width="109" height="107" fill="#fff" stroke="#707070" stroke-width="1"/>
    </clipPath>
    <clipPath id="clip-path-2">
      <rect id="Rectangle_3" data-name="Rectangle 3" width="110" height="107" transform="translate(-0.378 -0.085)" fill="#fff" stroke="#707070" stroke-width="1"/>
    </clipPath>
  </defs>
  <g id="Group_3" data-name="Group 3" transform="translate(-170 324)">
    <g id="Mask_Group_1" data-name="Mask Group 1" transform="translate(170 -324)" clip-path="url(#clip-path)">
      <g id="_8679475_flutter_icon" data-name="8679475_flutter_icon" transform="translate(0.778)">
        <path id="Path_1" data-name="Path 1" d="M0,0H107.023V107.023H0Z" fill="none"/>
        <path id="Path_2" data-name="Path 2" d="M104.873,65.343h12.611L92.258,90.574,117.484,115.8H104.873L79.647,90.565l25.226-25.226Zm-.865-38.707h12.615L66.171,77.089l-6.305-6.305,44.147-44.147Z" transform="translate(-39.781 -17.7)" fill="#d68b12"/>
      </g>
    </g>
    <g id="Mask_Group_2" data-name="Mask Group 2" transform="translate(456.622 -217.085) rotate(180)" clip-path="url(#clip-path-2)">
      <g id="_8679475_flutter_icon-2" data-name="8679475_flutter_icon" transform="translate(0.778)">
        <path id="Path_3" data-name="Path 3" d="M0,0H107.023V107.023H0Z" fill="none"/>
        <path id="Path_4" data-name="Path 4" d="M45.008,38.707H57.619L41.092,55.236l-8.7,8.7L57.619,89.159H45.008L19.781,63.929,45.008,38.7ZM44.143,0H56.758L6.305,50.453,0,44.147,44.147,0Z" transform="translate(20.085 8.936)" fill="#d68b12"/>
      </g>
    </g>
    <text id="CUT" transform="translate(254 -246)" fill="#db8d11" font-size="68" font-family="Phosphate-Inline, Phosphate"><tspan x="0" y="0">CUT</tspan></text>
  </g>
</svg>
